<svg width="246" height="183" viewBox="0 0 246 183" fill="none" xmlns="http://www.w3.org/2000/svg">
<rect y="16" width="246" height="167" rx="20" fill="#222831"/>
<path d="M68.476 143.397C61.144 143.397 57.478 140.248 57.478 133.95C57.478 131.882 57.76 129.532 58.324 126.9C58.982 124.174 59.875 120.696 61.003 116.466C62.319 112.048 63.306 108.288 63.964 105.186C64.622 102.084 64.951 99.311 64.951 96.867C64.951 90.475 62.131 87.279 56.491 87.279C54.987 87.279 53.436 87.467 51.838 87.843L40.558 141H20.254L39.43 51.324L60.298 48.504L53.389 81.075H54.517C58.183 81.075 61.567 79.806 64.669 77.268C67.771 74.73 70.168 71.581 71.86 67.821C73.646 63.967 74.539 60.207 74.539 56.541C74.539 52.217 73.223 48.692 70.591 45.966C68.053 43.146 64.199 41.736 59.029 41.736C51.415 41.736 44.741 43.099 39.007 45.825C33.273 48.551 28.808 52.499 25.612 57.669C22.51 62.839 20.959 68.949 20.959 75.999C20.959 79.477 21.288 81.921 21.946 83.331C22.604 84.647 22.933 85.399 22.933 85.587C17.857 85.587 14.05 84.553 11.512 82.485C9.068 80.323 7.846 76.798 7.846 71.91C7.846 65.894 10.29 60.066 15.178 54.426C20.16 48.692 26.505 44.086 34.213 40.608C41.921 37.036 49.629 35.25 57.337 35.25C64.387 35.25 70.309 36.284 75.103 38.352C79.897 40.42 83.469 43.193 85.819 46.671C88.169 50.055 89.344 53.768 89.344 57.81C89.344 62.228 87.981 66.646 85.255 71.064C82.529 75.482 78.816 79.101 74.116 81.921C77.688 82.955 80.179 84.694 81.589 87.138C83.093 89.488 83.845 92.449 83.845 96.021C83.845 98.747 83.516 101.661 82.858 104.763C82.2 107.771 81.26 111.531 80.038 116.043C79.286 118.957 78.581 121.824 77.923 124.644C77.265 127.464 76.936 129.814 76.936 131.694C76.936 133.856 77.406 135.783 78.346 137.475C79.38 139.167 80.743 140.342 82.435 141C76.701 142.598 72.048 143.397 68.476 143.397ZM108.093 141.75C103.343 141.75 99.3843 140.125 96.2176 136.875C93.051 133.625 91.4676 128.542 91.4676 121.625C91.4676 115.458 92.676 109 95.0926 102.25C97.5926 95.4167 101.259 89.6667 106.093 85C111.009 80.25 116.843 77.875 123.593 77.875C127.009 77.875 129.551 78.4583 131.218 79.625C132.884 80.7917 133.718 82.3333 133.718 84.25V85.125L135.093 78.5H153.093L144.093 121C143.759 122.25 143.593 123.583 143.593 125C143.593 126.667 143.968 127.875 144.718 128.625C145.551 129.292 146.884 129.625 148.718 129.625C149.884 129.625 150.801 129.458 151.468 129.125C149.634 133.792 147.884 137.083 146.218 139C144.551 140.833 142.134 141.75 138.968 141.75C135.551 141.75 132.759 140.75 130.593 138.75C128.509 136.667 127.218 133.792 126.718 130.125C121.634 137.875 115.426 141.75 108.093 141.75ZM116.218 129.625C118.301 129.625 120.343 128.667 122.343 126.75C124.426 124.75 125.843 122.042 126.593 118.625L132.593 90.375C132.593 89.2917 132.176 88.25 131.343 87.25C130.509 86.1667 129.218 85.625 127.468 85.625C124.134 85.625 121.134 87.5833 118.468 91.5C115.801 95.3333 113.718 100 112.218 105.5C110.718 110.917 109.968 115.708 109.968 119.875C109.968 124.042 110.551 126.708 111.718 127.875C112.968 129.042 114.468 129.625 116.218 129.625ZM145.002 176.25C140.584 176.25 136.73 174.793 133.44 171.879C130.056 169.059 128.364 165.44 128.364 161.022C128.364 156.98 129.398 153.643 131.466 151.011C133.534 148.379 136.213 146.264 139.503 144.666C142.793 143.162 147.164 141.564 152.616 139.872L169.677 59.361C171.557 50.337 174.847 44.086 179.547 40.608C184.341 37.13 189.605 35.391 195.339 35.391C199.757 35.391 203.611 36.848 206.901 39.762C210.285 42.582 211.977 46.201 211.977 50.619C211.977 52.781 211.836 54.708 211.554 56.4H204.927C205.115 54.332 205.209 53.063 205.209 52.593C205.209 51.089 204.692 49.914 203.658 49.068C202.624 48.222 201.355 47.799 199.851 47.799C197.877 47.799 195.95 48.692 194.07 50.478C192.19 52.17 190.827 55.131 189.981 59.361L187.584 70.5H197.877L196.89 76.14H186.456L170.241 152.28C168.361 161.398 165.118 167.649 160.512 171.033C155.906 174.511 150.736 176.25 145.002 176.25ZM141.759 163.701C145.519 163.701 148.198 160.035 149.796 152.703L151.629 144.525C146.647 146.217 142.84 148.144 140.208 150.306C137.482 152.562 136.119 155.476 136.119 159.048C136.119 160.176 136.683 161.21 137.811 162.15C138.939 163.184 140.255 163.701 141.759 163.701ZM223.06 62.886C219.958 62.886 217.326 61.805 215.164 59.643C213.002 57.481 211.921 54.849 211.921 51.747C211.921 48.645 213.002 46.013 215.164 43.851C217.326 41.595 219.958 40.467 223.06 40.467C226.162 40.467 228.794 41.595 230.956 43.851C233.212 46.013 234.34 48.645 234.34 51.747C234.34 54.849 233.212 57.481 230.956 59.643C228.794 61.805 226.162 62.886 223.06 62.886ZM213.472 141.846C208.96 141.846 205.294 140.436 202.474 137.616C199.748 134.796 198.385 130.566 198.385 124.926C198.385 122.576 198.761 119.521 199.513 115.761L209.101 70.5H229.405L219.253 118.44C218.877 119.85 218.689 121.354 218.689 122.952C218.689 124.832 219.112 126.195 219.958 127.041C220.898 127.793 222.402 128.169 224.47 128.169C226.162 128.169 227.666 127.887 228.982 127.323C228.606 132.023 226.914 135.642 223.906 138.18C220.992 140.624 217.514 141.846 213.472 141.846Z" fill="white"/>
<path d="M130.804 74.8851C130.651 75.2529 130.482 75.5211 130.299 75.6897C130.13 75.8583 129.885 75.9426 129.563 75.9426C129.241 75.9426 128.988 75.866 128.804 75.7127C128.636 75.5441 128.49 75.2683 128.367 74.8851L125.494 68.1265C125.356 67.866 125.425 67.6361 125.701 67.4368C125.854 67.3142 126.007 67.2376 126.161 67.2069C126.498 67.2069 126.712 67.3755 126.804 67.7127L129.563 74.3334L132.23 67.7127C132.337 67.4062 132.536 67.2376 132.827 67.2069C133.134 67.2069 133.364 67.3372 133.517 67.5978C133.578 67.6897 133.601 67.7817 133.586 67.8736C133.571 67.9502 133.548 68.0345 133.517 68.1265L130.804 74.8851Z" fill="white"/>
<circle cx="113.11" cy="58.2065" r="13.0039" fill="white"/>
<circle cx="113.11" cy="58.2065" r="16.1104" stroke="white" stroke-width="2"/>
<path d="M116 63C116 65.7614 113.761 68 111 68C108.239 68 106 65.7614 106 63C106 60.2386 108.239 58 111 58C113.761 58 116 60.2386 116 63Z" fill="#222831"/>
<circle cx="146.11" cy="58.1104" r="13.0039" fill="white"/>
<circle cx="146.11" cy="58.1104" r="16.1104" stroke="white" stroke-width="2"/>
<path d="M148 63C148 65.7614 145.761 68 143 68C140.239 68 138 65.7614 138 63C138 60.2386 140.239 58 143 58C145.761 58 148 60.2386 148 63Z" fill="#222831"/>
<path d="M125.519 36.0237L129.936 54.6384L138.163 46.9111L157.364 26.2422L125.519 36.0237Z" fill="white"/>
<path d="M141.597 33.1705L143.454 42.4662L147.593 39.4384L157.297 31.1078L141.597 33.1705Z" fill="white"/>
<path d="M117.7 33.1705L115.843 42.4662L111.703 39.4384L102 31.1078L117.7 33.1705Z" fill="white"/>
<path d="M133.844 36.0237L129.428 54.6384L121.201 46.9111L102 26.2422L133.844 36.0237Z" fill="white"/>
</svg>
